<svg width="121" height="88" version="1.1" viewBox="0 0 121 88" xmlns="http://www.w3.org/2000/svg">
    <path fill="#4e1a42" d="m14.745 1.2618e-8c-8.1432-2.7e-4 -14.745 4.3327-14.745 9.6777 0.0019988 0.70447 0.12131 1.403 0.35136 2.082l22.83 68.531c1.3857 4.4012 7.3252 7.7092 14.441 7.709 8.1433 2.7e-4 14.745-4.3326 14.745-9.6777-7e-3 -2.218-1.1742-4.3673-3.3067-6.0879-2.1325-1.7206-3.2997-3.8698-3.3067-6.0879 2.9e-4 -5.3451 6.6021-9.678 14.745-9.6777 8.1432-2.7e-4 14.745 4.3326 14.745 9.6777-7e-3 2.218-1.1742 4.3673-3.3067 6.0879-2.1325 1.7206-3.2997 3.8698-3.3067 6.0879 2.9e-4 5.3451 6.6021 9.678 14.745 9.6777 7.1157 2.4e-4 13.055-3.3078 14.441-7.709l22.83-68.531c0.23005-0.67906 0.34936-1.3776 0.35136-2.082-2.9e-4 -5.3451-6.6021-9.678-14.745-9.6777-8.1433-2.7e-4 -14.745 4.3326-14.745 9.6777 7e-3 2.218 1.1742 4.3673 3.3067 6.0879 2.1325 1.7206 3.2997 3.8698 3.3067 6.0879-2.7e-4 5.3451-6.6021 9.678-14.745 9.6777-8.1433 2.7e-4 -14.745-4.3326-14.745-9.6777 7e-3 -2.218 1.1742-4.3673 3.3067-6.0879 2.1325-1.7206 3.2997-3.8698 3.3067-6.0879-2.9e-4 -5.3451-6.6021-9.6777-14.745-9.6777-8.1433 0-14.745 4.3326-14.745 9.6777 7e-3 2.218 1.1742 4.3673 3.3067 6.0879 2.1325 1.7206 3.2999 3.8698 3.3067 6.0879-2.9e-4 5.3451-6.6021 9.678-14.745 9.6777-8.1432 2.7e-4 -14.745-4.3326-14.745-9.6777 7e-3 -2.218 1.1742-4.3673 3.3067-6.0879 2.1325-1.7206 3.2998-3.8698 3.3067-6.0879-2.9e-4 -5.3451-6.6021-9.678-14.745-9.6777z"/>
</svg>
