<svg width="512" height="512" version="1.1" viewBox="0 0 512 512" xmlns="http://www.w3.org/2000/svg">
    <g transform="translate(-.079841)">
        <g transform="translate(5.9999 39)" fill-rule="evenodd">
            <path d="m33.103 0 10.475 389.88 421.75 1.408 0.36226-391.29z" fill="#1068ff" stop-color="#000000" style="paint-order:fill markers stroke"/>
            <path d="m0.079949 32 0.9647 370a32.084 32.084 44.925 0 0 32.083 32h435.04a31.917 31.917 134.93 0 0 31.917-32l-0.96471-370a32.084 32.084 44.925 0 0-32.083-32h-2.6889a46.241 46.241 145.32 0 0-43.275 29.948l-25.954 68.935c-5.2349 13.904-10.157 28.116-11.448 42.919-1.2912 14.803 1.056 29.85 6.3823 43.719 5.3264 13.869 13.432 26.464 21.563 38.894 8.1313 12.43 16.378 25.068 20.732 39.273 7.1176 23.217 2.5954 49.702-11.822 69.233-14.418 19.53-38.38 31.63-62.637 31.63-24.257 0-48.219-12.1-62.637-31.63-14.418-19.531-18.94-46.016-11.822-69.233 4.3548-14.205 12.601-26.843 20.732-39.273 8.1313-12.43 16.236-25.025 21.563-38.894 5.3264-13.869 7.6735-28.917 6.3823-43.719-1.2912-14.803-6.213-29.015-11.448-42.919l-25.954-68.935a46.241 46.241 34.684 0 0-43.275-29.948h-4.0566a46.241 46.241 145.32 0 0-43.275 29.948l-25.954 68.935c-5.2349 13.904-10.157 28.116-11.448 42.919-1.2911 14.803 1.0539 29.85 6.3803 43.719 5.3264 13.869 13.434 26.464 21.565 38.894 8.1313 12.43 16.378 25.068 20.732 39.273 7.1176 23.217 2.5934 49.702-11.824 69.233-14.418 19.53-38.38 31.63-62.637 31.63-24.257 0-48.217-12.1-62.635-31.63-14.418-19.531-18.942-46.016-11.824-69.233 4.3548-14.205 12.601-26.843 20.732-39.273 8.1313-12.43 16.238-25.025 21.565-38.894 5.3264-13.869 7.6715-28.917 6.3803-43.719-1.2911-14.803-6.213-29.015-11.448-42.919l-25.954-68.935a46.241 46.241 34.684 0 0-43.275-29.948h-2.4508a31.917 31.917 134.93 0 0-31.917 32z" fill="#d3ab00" stop-color="#000000" style="paint-order:fill markers stroke"/>
        </g>
    </g>
</svg>
