<svg width="128" height="88" version="1.1" viewBox="0 0 128 88" xmlns="http://www.w3.org/2000/svg">
    <g>
        <path d="m0 0 15.539 44c32.307 13.658 64.613 9.7455 96.92 0l15.541-44h-24.598c-7.6197 0-10.372 3.9327-10.779 5.8086-0.73512 3.3882 6.1763 6.2159 5.8633 10.666-0.19449 2.7652-3.1777 7.2656-12.52 7.2656-9.3419 0-12.325-4.5005-12.52-7.2656-0.31299-4.4501 6.5984-7.2778 5.8633-10.666-0.407-1.8759-3.1577-5.8086-10.777-5.8086h-9.0664c-7.6196 0-10.37 3.9327-10.777 5.8086-0.73512 3.3882 6.1763 6.2159 5.8633 10.666-0.19448 2.7652-3.1796 7.2656-12.521 7.2656-9.3419 0-12.325-4.5005-12.52-7.2656-0.313-4.4501 6.6004-7.2778 5.8652-10.666-0.407-1.8759-3.1597-5.8086-10.779-5.8086z" fill="#7e2a6b"/>
        <path d="m15.539 44 15.541 44h13.598c7.6197 0 10.37-3.9327 10.777-5.8086 0.73512-3.3882-6.1782-6.2159-5.8652-10.666 0.19448-2.7652 3.1796-7.2656 12.521-7.2656 9.3419 0 12.325 4.5005 12.52 7.2656 0.313 4.4502-6.5984 7.2778-5.8633 10.666 0.407 1.8759 3.1577 5.8086 10.777 5.8086h17.373l15.541-44h-96.92z" fill="#4e1a42"/>
    </g>
</svg>
