<?xml version="1.0" encoding="UTF-8"?>
<svg width="641" height="224" version="1.1" viewBox="0 0 641 224" xmlns="http://www.w3.org/2000/svg">
 <g fill-rule="evenodd">
  <g>
   <path d="m0 0v224h96v-32h32v-32h32v-32h32v-128z" fill="#39c"/>
   <path d="m128 160h-32v-32h32v32m32-128v64h-96v96h-32v-160z" fill="#fff"/>
  </g>
  <g fill="#334e5b">
   <g>
    <path d="m216 28.2-0.11-8.39 26.4 1.66 11.8-0.11h4.31q6.74 0 21.1-0.773 8.17-0.552 10.3-0.552 13.9 0 21 1.55 10.8 2.21 17.1 7.07 6.41 4.86 10.9 13.9 4.64 8.95 4.64 16.7 0 19.2-12.1 31.3-12 11.9-30.5 11.9-6.41 0-12.3-1.55-5.74-1.55-10.8-4.64-0.552-3.2-0.552-8.83 2.65 0.221 4.75 0.331 2.21 0.11 3.87 0.11 9.39 0 15.8-5.19 8.5-6.74 8.5-21.9 0-10.8-3.75-17.7-3.64-6.96-8.72-9.39-7.07-3.31-15.9-3.31-8.28 0-11.8 2.43-0.883 1.44-1.33 2.76l0.773 52-0.221 4.42 0.331 4.64q0.11 1.55 0.11 4.53v9.06l0.11 14.5-0.221 17.2q0 3.64 0.663 9.83l22 2.76q0.442 2.65 0.442 4.2 0 1.66-0.552 4.64-2.76 0.442-4.2 0.442-3.42 0-12.9-0.773-9.5-0.883-21.6-0.883-13.7 0-26.1 1.77-2.1 0.331-6.63 0.552-0.442-3.2-0.442-4.75 0-0.994 0.221-3.09l6.74-2.21q6.96-2.1 12-5.08 0.994-3.2 0.994-5.85 0-1.1-0.11-2.54-0.11-3.42-0.11-9.61l-0.331-31-1.21-35q-0.773-25-1.21-26.9-0.773-3.2-2.65-4.97-1.88-1.88-6.29-2.65-9.17-1.55-12.1-2.54z"/>
    <path d="m428 143 2.54 1.66q0.994 0.773 1.21 1.88l0.11 0.552q-2.65 9.83-6.96 13.6-4.31 3.64-10.7 3.64-6.52 0-11.3-3.53-4.64-3.64-8.5-12.7-4.75 8.39-13.4 12.7-8.61 4.2-21.1 4.2-11.5 0-16.9-4.75-5.41-4.86-5.41-12.7 0-3.64 1.55-7.4 1.66-3.75 5.19-7.4 3.64-3.75 11.6-8.17 1.21-0.663 8.39-3.75l27.5-11q0.331-4.2 0.331-8.5 0-14.9-3.64-20.3-2.21-3.31-7.73-3.31-5.52 0-10.2 2.1-4.64 2.1-6.74 5.41-1.55 2.43-2.65 9.17-0.773 4.86-1.44 5.63-1.66 2.1-6.07 3.87-4.31 1.66-5.85 2.43-5.96 2.87-9.5 2.87-1.55-1.33-1.55-3.75 0-6.29 2.65-10.8 3.98-6.41 11.9-12.4 8.06-6.07 15-8.5 9.5-3.09 23.2-3.09 8.83 0 15.1 3.31 6.41 3.2 8.83 9.61 2.54 6.41 2.54 23.1l-0.331 18.2 0.221 13.4v3.42q0 4.64 1.21 6.41 1.33 1.66 3.31 1.66 1.21 0 2.1-0.663l3.31-5.19zm-36.2-25.6q-6.29 2.1-14.2 7.07-7.84 4.86-10.9 9.83-2.21 3.64-2.21 8.95 0 4.75 2.87 7.84 2.87 3.09 6.63 3.09 6.18 0 10.5-3.53 5.85-4.75 6.85-7.51 0.994-2.87 0.994-16 0-4.86-0.442-9.72z"/>
    <path d="m459 179q-14.9-3.75-19.9-8.83-4.97-4.97-4.97-11.2 0-4.97 2.65-7.62 2.65-2.65 24.2-14.9-10.9-6.52-15-12.6-5.3-7.95-5.3-15.7 0-6.96 2.87-14.8 6.18-11.3 16.9-16.8 10.8-5.63 27.8-5.63 6.85 0 11.8 0.883 2.32 0.442 7.73 2.43l4.2 1.55q5.63 3.53 9.83 7.29 9.5-1.88 15.4-3.87 4.09-1.21 7.07-1.21 2.21 0 3.53 1.88 1.33 1.88 1.33 8.83 0 6.07-1.66 8.5-1.66 2.32-3.42 2.32-0.663 0-3.87-1.55-7.51-3.42-12-3.64 2.65 7.62 2.65 14.5 0 8.06-4.75 15.5-4.64 7.29-12.8 11.6-11.4 6.07-22.7 6.07-7.29 0-9.94-0.331-3.87-0.442-10.8-1.99-9.39 5.19-13.1 8.83-1.88 1.77-1.88 4.2 0 2.21 1.88 3.98 1.99 1.77 6.52 2.43 0.883 0.11 2.43 0.442 5.85 0.442 15.6 0.442 1.21 0 7.84-0.331 1.88-0.11 3.2-0.11 26.4 0 37 8.39 10.5 8.39 10.5 20.5 0 6.52-3.75 12.7-3.64 6.29-9.94 10.2-6.29 3.98-18.2 7.07-11.8 3.09-25.4 3.09-14.7 0-26.4-2.87-11.6-2.87-18.2-9.39-5.08-4.86-5.08-10.4 0-5.41 4.2-9.72 4.31-4.2 22.2-10.2zm27.6-44.4q7.4 0 12.6-6.29 5.3-6.41 5.3-19.8 0-17.7-4.75-23.7-4.64-6.07-13.1-6.07-1.1 0-5.85 0.552-5.3 0.994-9.72 7.51-4.31 6.52-4.31 17.4 0 2.98 0.773 11.8 0.331 3.75 1.66 6.52 1.88 4.31 4.09 6.74 2.21 2.32 5.85 3.87 3.75 1.44 7.51 1.44zm6.29 79.4q16.3-1.88 25.4-8.83 5.74-4.53 5.74-8.95 0-2.43-1.21-4.75-1.21-2.32-4.42-4.64-3.09-2.21-7.07-3.09-5.63-1.1-14.9-1.1l-13.6-0.221q-17.9 0-24.1 4.42-6.07 4.42-6.07 11.7 0 3.87 3.42 7.62 3.42 3.87 11.5 6.07 8.06 2.21 17.3 2.21 2.65 0 7.95-0.442z"/>
    <path d="m552 105q2.87-9.39 5.08-12.5 6.18-9.06 13.1-14.1 7.07-5.08 12.7-6.74 7.29-2.1 11.8-2.1 10.4 0 16.8 1.66 6.41 1.55 10.7 4.53 6.18 4.31 9.94 8.72 3.75 4.42 6.07 10.4 2.43 5.96 2.65 14.5l-12.3-0.221q-5.08 0-22.3-0.994-6.41-0.442-8.83-0.442-0.773 0-11.9 0.11h-9.5q-0.221 1.55-0.221 2.65 0 5.85 1.44 12.4 1.44 6.41 4.31 11.4 2.87 4.86 7.07 8.39 4.31 3.53 8.83 5.08l6.41 2.1q8.5 0 11.4-0.552 5.3-1.1 9.28-2.76 4.09-1.77 9.83-5.85 3.98 2.87 6.63 5.19-9.72 10.7-20.2 15.6-10.4 4.75-23.3 4.75-8.72 0-14.2-1.55-7.4-1.99-13.4-6.07-5.96-4.09-10.3-10.2-4.31-6.07-6.41-12.5-2.76-8.39-2.76-13.5 0-9.61 1.55-17.3zm64.2-4.75q-0.11-6.18-2.43-11.8-2.32-5.63-7.18-8.72-4.86-3.2-9.83-3.2-7.4 0-13.4 6.52-5.96 6.52-6.74 17.7l25.2 0.11q2.43 0 6.85-0.331 3.2-0.331 4.53-0.331 0.994 0 2.98 0.11z"/>
   </g>
   <g>
    <path d="m216 179-0.0243-1.85 5.82 0.365 2.61-0.0243h0.95q1.49 0 4.65-0.17 1.8-0.122 2.26-0.122 3.07 0 4.63 0.341 2.39 0.487 3.77 1.56 1.41 1.07 2.41 3.07 1.02 1.97 1.02 3.68 0 4.24-2.68 6.89-2.65 2.63-6.72 2.63-1.41 0-2.7-0.341-1.27-0.341-2.39-1.02-0.122-0.706-0.122-1.95 0.584 0.0487 1.05 0.073 0.487 0.0243 0.852 0.0243 2.07 0 3.48-1.14 1.88-1.49 1.88-4.82 0-2.39-0.828-3.9-0.804-1.53-1.92-2.07-1.56-0.731-3.51-0.731-1.83 0-2.61 0.536-0.195 0.317-0.292 0.609l0.17 11.5-0.0487 0.974 0.073 1.02q0.0243 0.341 0.0243 0.998v2l0.0243 3.19-0.0487 3.8q0 0.804 0.146 2.17l4.85 0.609q0.0975 0.584 0.0975 0.925 0 0.365-0.122 1.02-0.609 0.0975-0.925 0.0975-0.755 0-2.85-0.17-2.09-0.195-4.77-0.195-3.02 0-5.75 0.39-0.463 0.073-1.46 0.122-0.0975-0.706-0.0975-1.05 0-0.219 0.0487-0.682l1.49-0.487q1.53-0.463 2.65-1.12 0.219-0.706 0.219-1.29 0-0.244-0.0243-0.56-0.0243-0.755-0.0243-2.12l-0.073-6.84-0.268-7.72q-0.17-5.5-0.268-5.94-0.17-0.706-0.584-1.1-0.414-0.414-1.39-0.584-2.02-0.341-2.68-0.56z"/>
    <path d="m246 208q0.317-0.268 0.828-0.39 1.24-0.268 2.36-0.974 0.219-0.584 0.219-3.95 0-6.16-0.268-8.33-0.0487-0.39-0.39-0.682-0.609-0.317-1.66-0.56-0.487-0.122-0.584-0.536l-0.073-0.901q1.8-0.244 3.26-1.22 1.46-0.998 2.19-2.02 0.39-0.56 0.682-0.852l1.7-0.073q0.122 0.56 0.122 0.925 0 0.268-0.0243 0.658-0.0243 0.852-0.0243 1.41 0 0.268 0.0243 2.02 0.998-1.7 1.46-2.29 0.219-0.268 1.29-1.19 0.828-0.609 1.88-0.609 1.29 0 2.24 0.877 0.95 0.877 0.95 2.02t-0.731 2.07q-0.706 0.901-1.9 0.901-1.05 0-2.19-0.877-0.682-0.536-1.1-0.536l-0.17 0.0243q-0.511 0.17-0.925 0.925-0.682 1.22-0.682 2.53l0.0487 0.658q0.0975 1.8 0.146 8.45 0.073 0.609 0.463 1.22 0.438 0.341 0.877 0.487 0.463 0.146 1.58 0.244 1.12 0.0975 1.36 0.317 0.244 0.195 0.244 0.658 0 0.268-0.146 0.706h-2.29l-4.65-0.244q-1.75 0-3.19 0.146h-0.414q-0.17 0-2.53 0.122-0.073-0.39-0.073-0.584 0-0.195 0.073-0.56z"/>
    <path d="m267 180q0-1.32 0.852-2.14 0.852-0.852 2.19-0.852 1.44 0 2.39 0.901 0.95 0.877 0.95 2 0 0.828-0.39 1.66-0.365 0.828-1.19 1.34-0.804 0.487-1.66 0.487-1.17 0-2.17-0.998-0.974-0.998-0.974-2.39zm-3.41 29.1-0.0487-1.58 2.75-0.365q0.609-0.17 0.828-0.487 0.244-0.341 0.244-1.49v-0.268q0-0.292 0.0243-1.05 0.0487-0.779 0.0487-1.36 0-0.463-0.073-1.78l0.0243-1.22-0.0243-1.14 0.0487-3.97q0-0.755-0.146-1.56-0.268-0.365-0.974-0.633t-2.46-0.39v-1.36q2.51-0.146 4.41-1.05 1.29-0.584 2.8-2.07h1.63q0.0975 3.02 0.0975 7.84l-0.17 9.94q0 1.02 0.0974 1.85 0.755 0.268 2.46 0.536 0.658 0.0974 1.05 0.244l-0.0243 1.34q-0.658 0.0243-0.974 0.0243-0.365 0-1.12-0.0487-2.48-0.122-6.65-0.122-1.19 0-2.31 0.0974-1.12 0.073-1.53 0.073z"/>
    <path d="m277 208q0.633-0.292 1.17-0.39 1.34-0.219 1.56-0.365 0.365-0.219 0.487-0.536 0.146-0.487 0.146-2.14v-2.12l0.0243-1.73-0.073-2.56v-1.53q0-1.53-0.244-2.51-0.0974-0.365-0.609-0.731-0.682-0.487-2.31-0.95l-0.0243-1.17q0.317-0.0975 0.56-0.122 0.268-0.0487 1.97-0.487 1.34-0.487 1.73-0.682 0.122-0.073 0.39-0.219 0.292-0.244 0.658-0.487 0.731-0.511 1.75-1.78l1.29-0.0974-0.0487 2.75q-0.0243 0.414-0.0243 0.658 0 0.195 0.0243 1.12 2.02-1.75 3.68-2.44 2.17-0.901 4.12-0.901 2.29 0 4.02 1.14 1.73 1.12 2.26 2.61t0.536 5.99l-0.0974 7.94q0 0.56 0.195 0.925 0.244 0.195 1.34 0.365l1.19 0.219q0.219 0.317 0.219 0.779 0 0.292-0.0243 0.804l-4.77-0.341-1.41 0.0487h-1.12l-3.21 0.244h-0.828q-0.0243-0.317-0.0243-0.487 0-0.438 0.0487-0.95 0.341-0.073 1.7-0.244 0.365-0.0487 0.804-0.17 0.487-0.195 0.56-0.39 0.195-0.414 0.195-1.58 0-2.05-0.0487-3.14l0.0243-2.82q0.0243-5.14-0.633-6.4-0.925-1.83-2.78-1.83-1.36 0-2.82 0.706-1.46 0.682-3.02 2.09l-0.0487 0.414 0.0487 1.53-0.0243 1.63 0.0975 3.9-0.0487 0.609q0 3.97 0.317 4.48 0.317 0.511 2.41 1.12 0.073 0.414 0.073 0.609 0 0.292-0.17 0.901-0.755 0.0243-1.27 0.0243t-1.61-0.146l-2.61-0.0487q-1.95 0-5.63 0.17-0.0974-0.244-0.0974-0.511 0-0.195 0.0243-0.779z"/>
    <path d="m305 190q2.87-1.22 4.14-2.39 1.29-1.17 2.75-3.8h1.36q0.219 0.633 0.219 1.34 0 1.27-0.0243 1.97l-0.073 1.44q0 0.122 0.0243 0.56l0.56 0.0243q0.122 0 2.29-0.0975 0.17 0 1.83-0.0487 0.146 0.658 0.146 1.17 0 0.56-0.17 1.32-0.804 0.0975-1.22 0.0975-0.195 0-0.779-0.0487h-1.27l-0.438-0.0243-1.17 0.0487-0.0487 9.3q-0.0243 2.7 0.0974 3.39 0.146 0.658 0.584 1.27 0.56 0.268 1.24 0.268 0.658 0 0.974-0.122 0.317-0.122 1.07-0.706 0.146-0.122 0.463-0.341 0.584 0.463 0.95 0.925l0.0975 0.292q-0.852 1.34-2.41 2.12-1.53 0.755-3.29 0.755-2.26 0-3.68-1.44-1.41-1.44-1.41-4.46l0.0974-4.29v-6.94l-0.755-0.0243-1.75 0.0243-0.317-0.073q-0.146-0.219-0.146-0.414 0-0.146 0.0487-1.1z"/>
    <path d="m332 189 0.438-0.0243h0.365q0.195 0 1.68 0.146 1.51 0.146 2.78 0.146 0.974 0 2.73-0.146 1.75-0.146 2.14-0.146 0.317 0 0.901 0.0243 0.0487 0.463 0.0487 0.755 0 0.244-0.0975 0.56-0.365 0.122-0.852 0.195-1.07 0.195-1.49 0.438-0.122 0.073-0.195 0.341 0.195 0.731 0.414 1.29l2.39 5.45q1.17 2.7 2.05 4.21 0.487 1.1 0.658 1.46 2.29-4.04 3.46-7.67l-1.1-2.31q-0.682-1.51-1.41-2.75-0.438-0.122-0.95-0.244-0.901-0.219-1.66-0.463v-1.34q1.8 0.0243 2.46 0.0974 1.1 0.0975 3.26 0.0975 1.07 0 2.63-0.0487 1.56-0.073 1.9-0.073h1.19l-0.073 1.39q-0.268 0.0243-1.22 0.122-0.95 0.0975-1.68 0.317 1.22 3.02 1.61 3.73l0.292 0.536 2.61 5.7 0.901 1.95 0.95-2.09q1.17-2.56 1.39-3.12 0.706-1.83 0.828-2.09 1.14-2.41 1.14-3.58 0-0.317-0.511-0.658-0.146-0.0974-1.8-0.609-1.17-0.146-1.58-0.292l0.122-1.27q0.365-0.0487 0.609-0.0487 0.195 0 2.19 0.17 2.02 0.146 2.36 0.146 0.925 0 2.82-0.195 0.828-0.073 1.36-0.073v0.706q0 0.195-0.0243 0.755-2.39 0.706-3 1.14-0.146 0.0975-0.317 0.463l-3.7 8.38q-0.95 2-3.21 7.6-0.317 0.755-0.487 1.17h-1.83l-4.16-9.28-0.438-0.95q-0.195-0.438-0.463-0.901l-0.219 0.39-2.92 6.04q-0.658 1.41-1.24 2.46-0.56 1.05-0.998 2.17l-0.852 0.0243-1.32-0.0243-3.8-8.09-4.12-8.86q-0.39-0.706-0.731-0.974-0.584-0.438-1.34-0.56-0.731-0.146-0.925-0.317-0.0243-0.463-0.0243-0.706 0-0.341 0.0487-0.658z"/>
    <path d="m372 180q0-1.32 0.852-2.14 0.852-0.852 2.19-0.852 1.44 0 2.39 0.901 0.95 0.877 0.95 2 0 0.828-0.39 1.66-0.365 0.828-1.19 1.34-0.804 0.487-1.66 0.487-1.17 0-2.17-0.998-0.974-0.998-0.974-2.39zm-3.41 29.1-0.0487-1.58 2.75-0.365q0.609-0.17 0.828-0.487 0.244-0.341 0.244-1.49v-0.268q0-0.292 0.0243-1.05 0.0487-0.779 0.0487-1.36 0-0.463-0.073-1.78l0.0243-1.22-0.0243-1.14 0.0487-3.97q0-0.755-0.146-1.56-0.268-0.365-0.974-0.633-0.706-0.268-2.46-0.39v-1.36q2.51-0.146 4.41-1.05 1.29-0.584 2.8-2.07h1.63q0.0975 3.02 0.0975 7.84l-0.17 9.94q0 1.02 0.0975 1.85 0.755 0.268 2.46 0.536 0.658 0.0974 1.05 0.244l-0.0243 1.34q-0.658 0.0243-0.974 0.0243-0.365 0-1.12-0.0487-2.48-0.122-6.65-0.122-1.19 0-2.31 0.0974-1.12 0.073-1.53 0.073z"/>
    <path d="m383 190q2.87-1.22 4.14-2.39 1.29-1.17 2.75-3.8h1.36q0.219 0.633 0.219 1.34 0 1.27-0.0243 1.97l-0.073 1.44q0 0.122 0.0243 0.56l0.56 0.0243q0.122 0 2.29-0.0975 0.17 0 1.83-0.0487 0.146 0.658 0.146 1.17 0 0.56-0.17 1.32-0.804 0.0975-1.22 0.0975-0.195 0-0.779-0.0487h-1.27l-0.438-0.0243-1.17 0.0487-0.0487 9.3q-0.0243 2.7 0.0974 3.39 0.146 0.658 0.584 1.27 0.56 0.268 1.24 0.268 0.658 0 0.974-0.122 0.317-0.122 1.07-0.706 0.146-0.122 0.463-0.341 0.584 0.463 0.95 0.925l0.0974 0.292q-0.852 1.34-2.41 2.12-1.53 0.755-3.29 0.755-2.26 0-3.68-1.44-1.41-1.44-1.41-4.46l0.0975-4.29v-6.94l-0.755-0.0243-1.75 0.0243-0.317-0.073q-0.146-0.219-0.146-0.414 0-0.146 0.0487-1.1z"/>
    <path d="m398 207q0.39-0.0975 2.17-0.292 0.779-0.0974 0.974-0.341 0.244-0.365 0.244-1.73v-1.73l0.073-1.83v-2l0.0243-0.487-0.0243-1.22 0.0487-0.414 0.0974-8.84v-0.682q0-4.53-0.244-5.6-0.146-0.633-0.706-0.998-0.536-0.365-2.56-0.682v-0.511q0-0.365 0.0487-0.901l2.05-0.438q0.609-0.17 1.17-0.292 1.36-0.292 3.43-1.22 0.365-0.219 0.682-0.365l1.32 0.0975-0.0487 14.6q2.22-1.75 4.04-2.48t3.8-0.731q1.88 0 3.24 0.682 1.39 0.658 2.14 1.66 0.755 0.974 1.07 2.39 0.219 0.95 0.219 3.65v1.56l0.0243 3.43-0.122 4.97q0.0973 0.219 0.219 0.292 0.292 0.122 1.44 0.341 0.658 0.122 1.02 0.219 0.195 0.365 0.195 0.584l-0.0243 0.195q-0.0487 0.268-0.0487 0.804l-0.56 0.0243q-0.365 0-1.44-0.0975-2.05-0.195-3.43-0.195-0.901 0-2.41 0.0975-1.07 0.0487-2.73 0.0487-0.268 0-0.487-0.073v-0.584l-0.0487-0.317q0-0.195 0.122-0.536 0.56-0.268 1.29-0.341 0.755-0.0975 1.41-0.195 0.0974-0.463 0.122-0.584l0.122-3.56v-5.97q0-2.65-0.292-3.58-0.292-0.95-1.22-1.53-0.925-0.609-2.24-0.609-1.53 0-3 0.731-1.44 0.706-2.46 1.68v4.26q0 3.51-0.073 5.26-0.0487 1.05-0.0487 1.32 0 1.68 0.219 2.31 0.0974 0.292 0.536 0.536 0.901 0.073 1.49 0.0975 0.609 0 0.974 0.0975 0.0487 0.609 0.0487 0.852 0 0.341-0.0973 0.828l-2.7-0.122q-1.53-0.122-2.75-0.122l-3.41 0.17-2.39-0.0243q-0.244-0.341-0.511-1.22z"/>
    <path d="m551 179-0.122-1.51q0.292-0.17 0.463-0.17 2.02 0.146 4.04 0.219 0.828 0.0243 1.07 0.0243 0.877 0 2.05-0.073l3.17-0.146q0.17 0.0975 0.219 0.268l-0.195 1.12q-0.463 0.292-0.901 0.511-0.974 0.536-0.974 0.877 0 0.317 0.244 0.804 0.146 0.292 0.39 0.998 0.414 1.19 2.34 5.8l6.31 14.7q1.24-2.31 3.87-7.79l-3.58-8.57q-0.998-2.41-1.73-3.97-0.244-0.511-0.414-0.974-0.146-0.244-0.39-0.706-0.244-0.487-0.755-0.779-0.511-0.317-2.44-0.779l0.0975-1.46q0.779 0 2.14 0.073 1.97 0.146 2.53 0.146l3.41-0.0487 4.21-0.244q0.122 0.0243 0.341 0.0243l0.0243 0.828v0.292q0 0.146-0.0974 0.39-0.414 0.122-1.32 0.219-0.633 0.0487-0.901 0.268-0.244 0.219-0.244 0.511 0 0.731 0.511 1.78 0.219 0.463 0.584 1.41 1.22 3.12 1.88 4.55l1.7-3.53q1.17-2.44 1.53-3.58 0.073-0.244 0.073-0.414v-0.146q-0.292-0.317-0.536-0.438-0.609-0.268-2.07-0.633-0.0487-0.463-0.0487-0.706 0-0.268 0.073-0.804 0.804 0 4.55 0.122 2.22 0.073 2.82 0.073 0.511 0 0.901 0 0.39-0.0243 0.828-0.0243l0.0487 0.195-0.073 1.1-0.0487 0.122q-2.63 0.755-3.14 1.1-0.511 0.341-0.974 1.12-1.22 2.14-4.51 8.96l0.0974 0.219 1.56 3.6 2.65 6.26q0.414 0.925 0.584 1.36l3.07-8.04 4.29-10.9 0.682-2.05q0.0487-0.195 0.0487-0.39l-0.073-0.414q-0.828-0.268-1.36-0.39-0.511-0.146-0.901-0.39-0.073-0.804-0.073-0.998 0-0.195 0.17-0.511l0.39-0.0487 3.65 0.146 2.41-0.146 0.511 0.073q0.073 0.438 0.073 0.779 0 0.438-0.17 0.706-0.122 0.17-0.487 0.292-0.998 0.487-1.36 0.925-0.268 0.292-0.755 1.63-2.12 5.7-4.38 11-2.24 5.28-6.7 16.8l-2.46 0.0243q-0.244-0.877-0.536-1.49-0.706-1.58-0.828-2l-2.7-6.23q-0.658-1.56-1.07-2.31-0.073-0.122-0.195-0.341-0.0487 0.122-2.58 4.89-2.51 4.75-3.68 7.43l-2.48 0.0243q-0.877-2.68-3.43-8.23l-7.87-18.4q-1.24-2.8-1.78-3.34-0.195-0.195-0.731-0.414-0.195-0.073-0.56-0.219z"/>
    <path d="m595 196q0.633-2.07 1.12-2.75 1.36-2 2.9-3.12 1.56-1.12 2.8-1.49 1.61-0.463 2.61-0.463 2.29 0 3.7 0.365 1.41 0.341 2.36 0.998 1.36 0.95 2.19 1.92 0.828 0.974 1.34 2.29 0.536 1.32 0.584 3.19l-2.7-0.0487q-1.12 0-4.92-0.219-1.41-0.0974-1.95-0.0974-0.17 0-2.63 0.0243h-2.09q-0.0487 0.341-0.0487 0.584 0 1.29 0.317 2.73 0.317 1.41 0.95 2.51 0.633 1.07 1.56 1.85 0.95 0.779 1.95 1.12l1.41 0.463q1.88 0 2.51-0.122 1.17-0.244 2.05-0.609 0.901-0.39 2.17-1.29 0.877 0.633 1.46 1.14-2.14 2.36-4.46 3.43-2.29 1.05-5.14 1.05-1.92 0-3.14-0.341-1.63-0.438-2.95-1.34-1.32-0.901-2.26-2.24-0.95-1.34-1.41-2.75-0.609-1.85-0.609-2.97 0-2.12 0.341-3.82zm14.1-1.05q-0.0243-1.36-0.536-2.61-0.511-1.24-1.58-1.92-1.07-0.706-2.17-0.706-1.63 0-2.95 1.44-1.32 1.44-1.49 3.9l5.55 0.0243q0.536 0 1.51-0.073 0.706-0.073 0.998-0.073 0.219 0 0.658 0.0243z"/>
    <path d="m616 180 2.07-0.779q0.779-0.292 4.07-2.02h1.07q0.414 0 0.731 0.0487 0.0243 0.706 0.0243 0.974l-0.0243 0.998 0.122 9.16-0.0243 3.51q0.706-0.779 1.88-1.63 0.244-0.17 1.34-0.682 1.1-0.536 1.75-0.682 1.17-0.268 2.07-0.268 2.41 0 3.92 0.609 1.53 0.609 2.87 1.92 1.36 1.29 2.29 3.63 0.584 1.49 0.584 3.63 0 1.39-0.487 3.14-0.463 1.73-1.53 3.39-0.779 1.19-2.22 2.34-1.41 1.14-3.26 1.83-1.22 0.463-4.16 0.463-2.7 0-6.06-2-0.877-0.536-1.27-0.731-0.487 0.706-1.1 1.7-0.584 0.998-0.804 1.32l-1.22 0.0243q0-0.584 0.0487-1.19 0.073-0.609 0.073-1.14l-0.0243-1.8 0.073-0.633q0.0487-0.39 0.0487-1.36v-17.8q0-2.68-0.17-3.48-0.0487-0.244-0.195-0.341-0.122-0.122-2.48-0.998zm8.11 13.3-0.0243 3.8q0 6.31 0.292 7.55 0.317 1.24 1.63 2.17 1.32 0.901 2.78 0.901 1.07 0 2.14-0.438 1.07-0.438 1.63-0.974 0.852-0.804 1.27-1.7 0.658-1.41 0.828-2.58 0.219-1.61 0.219-2.56 0-2-0.828-3.95-0.804-1.97-2.29-2.92-1.46-0.974-3.19-0.974-1.07 0-2.53 0.609t-1.92 1.07z"/>
   </g>
  </g>
 </g>
</svg>
