<svg width="257" height="257" version="1.1" viewBox="0 0 257 257" xmlns="http://www.w3.org/2000/svg">
    <g fill-rule="evenodd">
        <path d="m22.841 28.681c-10.631 0-19.341 8.7103-19.341 19.341v160.96c0 10.631 8.7103 19.341 19.341 19.341h211.32c10.631 0 19.341-8.7103 19.341-19.341v-135.98c0-10.631-8.7103-19.341-19.341-19.341h-102.69c-8.4938 0-16.634-3.371-22.64-9.3768l-3.6999-3.6999c-7.616-7.6154-17.95-11.895-28.72-11.895z" color="#000000" fill="#3f3900" stop-color="#000000" style="-inkscape-stroke:none;font-variation-settings:normal"/>
        <path d="m131.47 74.287h102.69c5.9853 0 10.745 4.7598 10.745 10.745v123.95c0 5.9853-4.7598 10.745-10.745 10.745h-211.32c-5.9853 0-10.745-4.7598-10.745-10.745v-107.68c0-5.9853 4.7598-10.745 10.745-10.745h53.572c10.553 0.02713 20.889-3.0121 29.748-8.7472l5e-3 -0.0019 6e-3 -0.0046c7.5282-4.9036 16.317-7.5132 25.301-7.5132zm-108.63-37.009c-5.9853 0-10.745 4.7599-10.745 10.745v37.224c3.0795-2.0734 6.7776-3.2886 10.745-3.2886h53.585c8.8883 0.02491 17.591-2.5318 25.054-7.36 8.9234-5.8124 19.345-8.9067 29.994-8.9067h102.69c3.5108 0 6.8023 0.96379 9.6496 2.6191-1.7283-3.5922-5.3574-6.0609-9.6496-6.0609h-102.69c-10.77 0-21.104-4.2798-28.72-11.895l-3.6978-3.6978c-6.0063-6.0058-14.149-9.3789-22.642-9.3789z" color="#000000" fill="#f4e667" stop-color="#000000" style="-inkscape-stroke:none;font-variation-settings:normal"/>
        <path d="m15.842 124.94h24.14l0.0021 28.711h8.0469l-0.0021-28.711h8.047l0.0021 28.711h8.0469l-0.0021-28.711 8.047 1.3e-4 0.0021 28.711h8.0469l-9.95e-4 -28.711 8.047-1e-5 9.84e-4 28.712 8.0469-1e-5 -9.85e-4 -28.712 8.047-2e-5 9.8e-4 28.711h8.0469l-1e-3 -28.711 8.047 3e-5 9.6e-4 28.594 8.0469 0.11828-8.6e-4 -28.712 8.047 1.1e-4 7.6e-4 28.711 8.0469 1.3e-4 -6.4e-4 -28.711h8.047l5.5e-4 28.711h8.0469l-4.6e-4 -28.711 8.047-1.1e-4 3.5e-4 28.711 8.0469 2e-3 -2.5e-4 -28.713 8.047-1.7e-4 1.5e-4 28.595 8.0469-0.11862-5e-5 -28.476 8.047-1e-4 -5e-5 28.714 8.047-0.23702-1.3e-4 -28.477 8.0471 2.2e-4 -2.3e-4 28.711 24.142 3e-3v-28.715l-16.095-8e-5v14.357h-193.13v14.357l-16.095-6e-5z" fill="#3f3900" stop-color="#000000" style="-inkscape-stroke:none;font-variation-settings:normal"/>
        <path d="m26.21 131.77v75.363h25.746v-75.363zm5.4925 54.362h14.761v15.306h-14.761z" fill="#3f3900" stop-color="#000000" style="-inkscape-stroke:none;font-variation-settings:normal"/>
    </g>
</svg>
